<!-- icon666.com - MILLIONS vector ICONS FREE --><svg id="Capa_1" enable-background="new 0 0 512 512" viewBox="0 0 512 512" xmlns="http://www.w3.org/2000/svg"><g><path d="m73.161 435.188c-46.416-47.327-73.161-111.105-73.161-179.188 0-141.385 114.615-256 256-256s256 114.615 256 256c0 68.083-26.745 131.861-73.161 179.188 7.995 8.15 12.926 19.317 12.926 31.636 0 24.95-20.226 45.176-45.176 45.176h-301.177c-24.95 0-45.176-20.226-45.176-45.176-.001-12.319 4.93-23.487 12.925-31.636zm180.749-13.541-87.013-83.058c-42.808-3.209-76.544-38.959-76.544-82.589s33.736-79.38 76.545-82.589l143.269-136.757c-17.353-4.271-35.495-6.536-54.167-6.536-124.751 0-225.882 101.131-225.882 225.882 0 63.834 26.611 123.327 72.408 165.738.958-.061 1.921-.091 2.886-.091zm43.619 0h109.059c.966 0 1.928.031 2.887.091 45.797-42.412 72.408-101.904 72.408-165.738 0-94.067-57.5-174.704-139.27-208.681l-138.223 131.94c30.271 12.325 51.61 42.041 51.61 76.741s-21.339 64.416-51.611 76.741zm-192.117 30.118c-8.317 0-15.059 6.742-15.059 15.059s6.742 15.059 15.059 15.059h301.176c8.317 0 15.059-6.742 15.059-15.059s-6.742-15.059-15.059-15.059zm67.764-143.059c29.108 0 52.706-23.597 52.706-52.706s-23.597-52.706-52.706-52.706-52.705 23.597-52.705 52.706 23.597 52.706 52.705 52.706zm271.059-52.706c0 8.317-6.742 15.059-15.059 15.059s-15.059-6.742-15.059-15.059c0-41.679-16.245-81.74-46.312-111.806-5.881-5.881-5.881-15.415 0-21.296s15.415-5.881 21.296 0c35.774 35.772 55.134 83.515 55.134 133.102z" fill="#000000" style="fill: rgb(255, 255, 255);"></path></g></svg>